<svg xmlns="http://www.w3.org/2000/svg" viewBox="0 0 115.54 23.59"><defs><style>.cls-1,.cls-3{fill:#006ca6;}.cls-2,.cls-5{fill:#1f2f3f;}.cls-3,.cls-4,.cls-5{fill-rule:evenodd;}.cls-4{fill:#09a5a1;}</style></defs><title>bibliocss</title><g id="Calque_2" data-name="Calque 2"><g id="Calque_1-2" data-name="Calque 1"><path class="cls-1" d="M26,14.85V2.73h4.9V14.88a4.58,4.58,0,0,0,.35,2,2.31,2.31,0,0,0,.92.94,2.62,2.62,0,0,0,1.31.34,2.62,2.62,0,0,0,2.3-1.35,2.67,2.67,0,0,0,.35-1.35,2.65,2.65,0,0,0-.35-1.33,2.7,2.7,0,0,0-1-1,3,3,0,0,0-1.39-.34,4.81,4.81,0,0,0-1.61.34v-5A7.21,7.21,0,0,1,33.37,8a7.83,7.83,0,0,1,3.86,1A7.25,7.25,0,0,1,40,11.67a7.39,7.39,0,0,1,1,3.8A7.62,7.62,0,0,1,37.3,22a7.29,7.29,0,0,1-3.77,1,7.53,7.53,0,0,1-3.78-1A7.46,7.46,0,0,1,26,15.61Z"/><path class="cls-1" d="M43,5.18a2.78,2.78,0,0,1,.35-1.38,2.81,2.81,0,0,1,1-1,2.63,2.63,0,0,1,2.66,0,2.7,2.7,0,0,1,1,1,2.79,2.79,0,0,1,.34,1.33,2.62,2.62,0,0,1-3.93,2.26,2.62,2.62,0,0,1-1-.94A2.34,2.34,0,0,1,43,5.18Zm5.09,17.57H43.21V8.22h4.91Z"/><path class="cls-1" d="M51,14.85V2.73h4.9V14.88a4.58,4.58,0,0,0,.35,2,2.31,2.31,0,0,0,.92.94,2.62,2.62,0,0,0,1.31.34,2.62,2.62,0,0,0,2.3-1.35,2.67,2.67,0,0,0,.35-1.35,2.65,2.65,0,0,0-.35-1.33,2.7,2.7,0,0,0-1-1,3,3,0,0,0-1.39-.34,4.81,4.81,0,0,0-1.61.34v-5A7.21,7.21,0,0,1,58.39,8a7.83,7.83,0,0,1,3.86,1A7.25,7.25,0,0,1,65,11.67a7.39,7.39,0,0,1,1,3.8A7.62,7.62,0,0,1,62.32,22a7.29,7.29,0,0,1-3.77,1,7.53,7.53,0,0,1-3.78-1A7.46,7.46,0,0,1,51,15.61Z"/><path class="cls-1" d="M73.15,22.76H68.23v-20h4.91Z"/><path class="cls-1" d="M76,5.18a2.78,2.78,0,0,1,.35-1.38,2.81,2.81,0,0,1,1-1,2.63,2.63,0,0,1,2.66,0,2.7,2.7,0,0,1,1,1,2.79,2.79,0,0,1,.34,1.33A2.62,2.62,0,0,1,77.3,7.38a2.62,2.62,0,0,1-1-.94A2.34,2.34,0,0,1,76,5.18Zm5.09,17.57H76.14V8.22h4.91Z"/><path class="cls-1" d="M83.26,15.52a7.31,7.31,0,0,1,.59-2.92,7.7,7.7,0,0,1,1.63-2.42,7.59,7.59,0,0,1,2.42-1.63,7.68,7.68,0,0,1,5.85,0,7.28,7.28,0,0,1,2.39,1.6,7.59,7.59,0,0,1,1.61,2.39,7.42,7.42,0,0,1,.59,3,7.24,7.24,0,0,1-.59,2.92,7.69,7.69,0,0,1-1.61,2.39,7.6,7.6,0,0,1-2.42,1.61A7.5,7.5,0,0,1,87,22a7.53,7.53,0,0,1-2.74-2.74A7.29,7.29,0,0,1,83.26,15.52Zm4.88,0a2.44,2.44,0,0,0,.37,1.32,2.56,2.56,0,0,0,1,1,2.65,2.65,0,0,0,2.64,0,2.82,2.82,0,0,0,1-1,2.57,2.57,0,0,0,.35-1.32,2.65,2.65,0,0,0-.35-1.33,2.87,2.87,0,0,0-1-1,2.65,2.65,0,0,0-1.33-.35,2.57,2.57,0,0,0-1.32.35,2.7,2.7,0,0,0-1,1A2.51,2.51,0,0,0,88.14,15.52Z"/><path class="cls-2" d="M93.88,8.27a5.44,5.44,0,0,1-1.77,1.28q.56-.65,1.18-1.47a6.76,6.76,0,0,0,.86-1.39,2,2,0,0,0,.14-.89A.7.7,0,0,0,94,5.29a.64.64,0,0,0-.55-.06,1.94,1.94,0,0,0-.72.42,12.33,12.33,0,0,0-1.82,2.12q-.87,1.26-1.61,2.6l-.25.55a22,22,0,0,0-.89,2.45,6.47,6.47,0,0,0-.22,2.82,2.65,2.65,0,0,0,.37,1,1.49,1.49,0,0,0,.58.53,1.53,1.53,0,0,0,.71.15,2.8,2.8,0,0,0,.76-.12,9.26,9.26,0,0,0,1.95-1A13.5,13.5,0,0,0,94,15.46c.13-.13.24-.17.33-.12s.06.15-.07.28-.4.43-.65.68a11.07,11.07,0,0,1-.84.76c-.31.25-.64.5-1,.73a5.52,5.52,0,0,1-1,.56,1.79,1.79,0,0,1-1,.11,3.54,3.54,0,0,1-1.09-.34,3.1,3.1,0,0,1-.95-.73,2.08,2.08,0,0,1-.52-1.05,7.63,7.63,0,0,1,0-2.24,12.55,12.55,0,0,1,.53-2.34,15.4,15.4,0,0,1,1-2.26,17.84,17.84,0,0,1,1.22-2,11.83,11.83,0,0,1,1.36-1.63,7.37,7.37,0,0,1,1.35-1.09,1.88,1.88,0,0,1,1.06-.27,1.73,1.73,0,0,1,.93.31,1.32,1.32,0,0,1,.51.81,1.75,1.75,0,0,1-.22,1.19A6.81,6.81,0,0,1,93.88,8.27Zm-1.8,1.29v0a0,0,0,0,0,0,0A.09.09,0,0,1,92.08,9.56Z"/><path class="cls-2" d="M102.41,10.3a34.77,34.77,0,0,1,4.18-2.08l0,0a24.5,24.5,0,0,0-3.92,2.23,36.9,36.9,0,0,0-4,3.23,5.31,5.31,0,0,1,.73.71,1.4,1.4,0,0,1,.28.51q.19.82-1.56,2.08a7.14,7.14,0,0,1-2.5,1.34,2,2,0,0,1-.64.05c-.26.1-.48.19-.63.27a.68.68,0,0,1-.39.09c-.26,0-.35-.08-.26-.34A30,30,0,0,1,97,14.48l-1.22-1a3.63,3.63,0,0,1-.66-.68,3.22,3.22,0,0,1-.4-.74q-.68-1.91,3-5.33a20,20,0,0,1,3.55-2.76,11.06,11.06,0,0,1,3.37-1.36.43.43,0,0,1,.36.1c.12.16.15.29.09.38a2.39,2.39,0,0,1-.53.73q-.39.4-.61.38a8.38,8.38,0,0,0-1.22-.06,4.45,4.45,0,0,0-.81.09l-.33.09-.3.11a12.29,12.29,0,0,0-3.42,2.84Q95.52,9.77,96,11.15a4.41,4.41,0,0,0,1,1.35,3.76,3.76,0,0,0,1.24.86A25.67,25.67,0,0,1,102.41,10.3Zm-7.06,7.76a3.89,3.89,0,0,0,1.71-.73L98,16.7a1.21,1.21,0,0,0,.45-.53.52.52,0,0,0,0-.35q-.11-.47-.92-.93-.4.4-1.21,1.32-.49.54-.78.92a2.41,2.41,0,0,0-.38.64C95.05,18,95.11,18.07,95.36,18.06Z"/><path class="cls-2" d="M111.32,8.29A34.77,34.77,0,0,1,115.5,6.2l0,0a24.5,24.5,0,0,0-3.92,2.23,36.9,36.9,0,0,0-4,3.23,5.31,5.31,0,0,1,.73.71,1.4,1.4,0,0,1,.28.51q.19.82-1.56,2.08a7.14,7.14,0,0,1-2.5,1.34,2,2,0,0,1-.64.05c-.26.1-.48.19-.63.27a.68.68,0,0,1-.39.09c-.26,0-.35-.08-.26-.34a30,30,0,0,1,3.27-3.91l-1.22-1a3.63,3.63,0,0,1-.66-.68,3.22,3.22,0,0,1-.4-.74q-.68-1.91,3-5.33a20,20,0,0,1,3.55-2.76A11.06,11.06,0,0,1,113.54.55a.43.43,0,0,1,.36.1c.12.16.15.29.09.38a2.39,2.39,0,0,1-.53.73q-.39.4-.61.38a8.38,8.38,0,0,0-1.22-.06,4.45,4.45,0,0,0-.81.09l-.33.09-.3.11a12.29,12.29,0,0,0-3.42,2.84Q104.42,7.75,105,9.14a4.41,4.41,0,0,0,1,1.35,3.76,3.76,0,0,0,1.24.86A25.67,25.67,0,0,1,111.32,8.29ZM104.27,16a3.89,3.89,0,0,0,1.71-.73l.89-.63a1.21,1.21,0,0,0,.45-.53.52.52,0,0,0,0-.35q-.11-.47-.92-.93-.4.4-1.21,1.32-.49.54-.78.92a2.41,2.41,0,0,0-.38.64C104,16,104,16.05,104.27,16Z"/><path class="cls-3" d="M.88,9.66,5.94,4.6v7q0,.14,0,.27A5.86,5.86,0,1,0,9,6.68V1.51L9.66.88a3,3,0,0,1,4.27,0l8.77,8.77a3,3,0,0,1,0,4.28L13.93,22.7a3,3,0,0,1-4.27,0L.88,13.93a3,3,0,0,1,0-4.28Zm10.91-.56a2.76,2.76,0,1,0,2.76,2.76A2.76,2.76,0,0,0,11.79,9.09Z"/><path class="cls-4" d="M9,1.51,9.66.88a3,3,0,0,1,4.27,0l8.77,8.77a3,3,0,0,1,0,4.28l-5.4,5.4C9.12,20.7,6.59,14.56,6.59,14.56h0A5.86,5.86,0,1,0,9,6.68V1.51Zm2.76,7.59a2.76,2.76,0,1,0,2.76,2.76A2.76,2.76,0,0,0,11.79,9.09Z"/><path class="cls-5" d="M9,1.51,9.66.88a3,3,0,0,1,4.27,0l4.34,4.34a9.13,9.13,0,0,1,.33,6.52c-2.52,7.66-8,5.85-8,5.85h0A5.86,5.86,0,1,0,9,6.68V1.51Zm2.76,7.59a2.76,2.76,0,1,0,2.76,2.76A2.76,2.76,0,0,0,11.79,9.09Z"/></g></g></svg>